<svg id="logo_regen" xmlns="http://www.w3.org/2000/svg" xmlns:xlink="http://www.w3.org/1999/xlink" width="118.52" height="19.103" viewBox="0 0 118.52 19.103">
  <defs>
    <clipPath id="clip-path">
      <rect id="사각형_2" data-name="사각형 2" width="118.52" height="19.103" fill="#fff"/>
    </clipPath>
  </defs>
  <g id="logo" clip-path="url(#clip-path)">
    <path id="패스_1" data-name="패스 1" d="M.088,25.887a.088.088,0,0,1-.014-.175c.019-.007.063-.027.129-.059a1.664,1.664,0,0,0,.291-.191,1.374,1.374,0,0,0,.289-.315.692.692,0,0,0,.121-.4V14.87a.65.65,0,0,0-.12-.392,1.5,1.5,0,0,0-.29-.309A1.741,1.741,0,0,0,.2,13.978a.661.661,0,0,1-.178-.1.088.088,0,0,1,.063-.149h9.03a.087.087,0,0,1,.088.087v1.959a.088.088,0,0,1-.148.064,1.017,1.017,0,0,1-.116-.168,2.246,2.246,0,0,0-.23-.289,1.665,1.665,0,0,0-.324-.27.686.686,0,0,0-.379-.12H3.078v3.958h4.76a.674.674,0,0,0,.517-.207,3.161,3.161,0,0,0,.226-.25.087.087,0,0,1,.1-.045.088.088,0,0,1,.067.087v2.092a.088.088,0,0,1-.054.081.087.087,0,0,1-.1-.019c-.011-.011-.092-.1-.241-.253a.673.673,0,0,0-.517-.207H3.078v4.393H8.3a.766.766,0,0,0,.415-.113,1.245,1.245,0,0,0,.319-.273,1.707,1.707,0,0,0,.222-.29c.051-.088.081-.143.093-.164a.088.088,0,0,1,.165.041V25.8a.088.088,0,0,1-.088.088" transform="translate(0 -7.935)" fill="#fff"/>
    <path id="패스_2" data-name="패스 2" d="M38.556,25.887H34.373a.088.088,0,0,1-.088-.088.087.087,0,0,1,.068-.085c.01-.005.042-.022.135-.081a1.313,1.313,0,0,0,.264-.227.687.687,0,0,0,.177-.3.48.48,0,0,0-.085-.381L32.628,21.3l-2.486,3.444a.455.455,0,0,0-.113.356.753.753,0,0,0,.145.308,1.189,1.189,0,0,0,.23.226.689.689,0,0,0,.12.076h.006a.083.083,0,0,1,.078.087.093.093,0,0,1-.094.087H26.948a.088.088,0,0,1,0-.176,1.019,1.019,0,0,1,.14-.081c.107-.062.235-.136.382-.225.13-.1.278-.213.433-.343a3.062,3.062,0,0,0,.415-.423l3.393-4.751-3.177-4.9a2.31,2.31,0,0,0-.368-.4c-.149-.13-.293-.247-.43-.347s-.267-.175-.376-.236a1.076,1.076,0,0,1-.2-.125.088.088,0,0,1,.063-.149h4.166a.087.087,0,0,1,.039.166q-.032.016-.16.1a1.07,1.07,0,0,0-.237.224.827.827,0,0,0-.181.322.388.388,0,0,0,.081.343l2.066,3.192,2.332-3.226a.427.427,0,0,0,.1-.34.757.757,0,0,0-.146-.308A1.311,1.311,0,0,0,35.041,14c-.138-.092-.176-.126-.176-.182a.087.087,0,0,1,.088-.087h3.585a.087.087,0,0,1,.081.054.089.089,0,0,1-.02.1,1.141,1.141,0,0,1-.2.123q-.161.091-.363.222c-.143.1-.3.211-.454.338a1.952,1.952,0,0,0-.376.392l-3.294,4.555,3.33,5.12a2.054,2.054,0,0,0,.368.417c.155.135.3.249.43.346s.269.177.376.238.143.078.154.082h.005a.078.078,0,0,1,.075.086.1.1,0,0,1-.1.087" transform="translate(-15.525 -7.935)" fill="#fff"/>
    <path id="패스_3" data-name="패스 3" d="M67.746,16.777a6.1,6.1,0,0,0-1.23-2.013,5.657,5.657,0,0,0-1.873-1.292,6.238,6.238,0,0,0-4.7,0,5.463,5.463,0,0,0-1.856,1.294,6.178,6.178,0,0,0-1.221,2.02,7.371,7.371,0,0,0-.441,2.608,7.5,7.5,0,0,0,.441,2.633,5.983,5.983,0,0,0,1.222,2.012,5.359,5.359,0,0,0,1.856,1.285,6.336,6.336,0,0,0,4.694,0,5.538,5.538,0,0,0,1.874-1.285,6.093,6.093,0,0,0,1.23-2.011,7.886,7.886,0,0,0,0-5.251M65.9,21.41a5.719,5.719,0,0,1-.754,1.666,3.848,3.848,0,0,1-1.224,1.156,3.317,3.317,0,0,1-3.238,0,3.954,3.954,0,0,1-1.213-1.139,5.776,5.776,0,0,1-.747-1.684,7.651,7.651,0,0,1-.26-2.014,7.843,7.843,0,0,1,.251-2,5.39,5.39,0,0,1,.755-1.684,3.837,3.837,0,0,1,1.206-1.147,3.135,3.135,0,0,1,1.632-.43,3.472,3.472,0,0,1,1.769.43,3.415,3.415,0,0,1,1.191,1.169,5.071,5.071,0,0,1,.685,1.666,9,9,0,0,1,.216,1.995A7.42,7.42,0,0,1,65.9,21.41" transform="translate(-32.616 -7.522)" fill="#fff"/>
    <path id="패스_4" data-name="패스 4" d="M99.6,25.711h0a1.227,1.227,0,0,1-.183-.069A2.865,2.865,0,0,1,99,25.42a3.4,3.4,0,0,1-.474-.326,1.454,1.454,0,0,1-.365-.43l-2.48-4.014a3.853,3.853,0,0,0,1.976-1.178,3.369,3.369,0,0,0,.791-2.292,2.883,2.883,0,0,0-.555-1.708,4.122,4.122,0,0,0-1.25-1.182,4.228,4.228,0,0,0-1.482-.453,15.449,15.449,0,0,0-1.974-.11H88.595a.089.089,0,0,0-.081.054.09.09,0,0,0,.018.1.717.717,0,0,0,.178.1,1.737,1.737,0,0,1,.292.19,1.52,1.52,0,0,1,.29.309.655.655,0,0,1,.119.392v9.875a.691.691,0,0,1-.121.4,1.4,1.4,0,0,1-.288.315,1.688,1.688,0,0,1-.292.191c-.07.034-.114.055-.115.058a.088.088,0,0,0,0,.176H92.4a.09.09,0,0,0,.09-.088.085.085,0,0,0-.082-.088h0a.8.8,0,0,1-.136-.058,1.689,1.689,0,0,1-.292-.191,1.272,1.272,0,0,1-.279-.313.742.742,0,0,1-.114-.4V20.815H93.36l2.532,3.973a.4.4,0,0,1,.062.344.947.947,0,0,1-.184.3,1.468,1.468,0,0,1-.258.206,1.425,1.425,0,0,1-.127.073.086.086,0,0,0-.068.086.088.088,0,0,0,.088.088h4.182a.09.09,0,0,0,.091-.088.086.086,0,0,0-.083-.088M94.948,19.5h0a2.989,2.989,0,0,1-1.232.226H91.5a.089.089,0,0,1-.088-.088V14.9a.088.088,0,0,1,.088-.088h2.236a2.942,2.942,0,0,1,1.179.216,2.218,2.218,0,0,1,.8.567,2.281,2.281,0,0,1,.444.782,2.8,2.8,0,0,1,.141.864,3.191,3.191,0,0,1-.123.852,2.152,2.152,0,0,1-1.226,1.4" transform="translate(-51.157 -7.934)" fill="#fff"/>
    <path id="패스_5" data-name="패스 5" d="M127.3,25.887h-9.338a.088.088,0,0,1-.014-.175c.019-.007.062-.027.129-.059a1.732,1.732,0,0,0,.291-.191,1.383,1.383,0,0,0,.289-.315.689.689,0,0,0,.121-.4V14.87a.654.654,0,0,0-.12-.392,1.507,1.507,0,0,0-.29-.309,1.769,1.769,0,0,0-.292-.191.709.709,0,0,1-.178-.1.089.089,0,0,1-.018-.1.087.087,0,0,1,.081-.054h9.03a.087.087,0,0,1,.088.087v1.959a.088.088,0,0,1-.053.081.089.089,0,0,1-.1-.016,1.08,1.08,0,0,1-.116-.168,2.238,2.238,0,0,0-.23-.289,1.669,1.669,0,0,0-.325-.27.676.676,0,0,0-.379-.12h-4.931v3.958h4.76a.674.674,0,0,0,.517-.207,2.955,2.955,0,0,0,.226-.25.087.087,0,0,1,.1-.045.089.089,0,0,1,.067.087v2.092a.088.088,0,0,1-.15.062c-.011-.012-.092-.1-.241-.253a.673.673,0,0,0-.517-.207h-4.76v4.393h5.221a.765.765,0,0,0,.415-.113,1.238,1.238,0,0,0,.319-.273,1.691,1.691,0,0,0,.222-.29c.051-.088.081-.143.093-.164a.088.088,0,0,1,.165.041V25.8a.088.088,0,0,1-.088.088" transform="translate(-68.131 -7.935)" fill="#fff"/>
    <path id="패스_6" data-name="패스 6" d="M151.316,25.814a6.365,6.365,0,0,1-2.351-.423,5.862,5.862,0,0,1-1.932-1.24,5.927,5.927,0,0,1-1.352-2.021,7.211,7.211,0,0,1-.5-2.778,6.65,6.65,0,0,1,.476-2.535,6.17,6.17,0,0,1,1.29-1.994,5.967,5.967,0,0,1,1.879-1.3,5.567,5.567,0,0,1,2.246-.468,7.574,7.574,0,0,1,2.386.281c.409.147.78.281.816.292a1.609,1.609,0,0,0,.733.017,2.464,2.464,0,0,0,.268-.089.075.075,0,0,1,.085-.014.088.088,0,0,1,.051.078l.29,3.113a.088.088,0,0,1-.166.047,4.751,4.751,0,0,0-.6-.92,3.678,3.678,0,0,0-2.08-1.294,5.8,5.8,0,0,0-1.572-.164,3.332,3.332,0,0,0-1.587.448,4.1,4.1,0,0,0-1.212,1.09,4.814,4.814,0,0,0-.789,1.563,6.382,6.382,0,0,0-.27,1.849,6.554,6.554,0,0,0,.287,1.957,4.85,4.85,0,0,0,.821,1.586,4.16,4.16,0,0,0,1.238,1.083,3.243,3.243,0,0,0,1.564.424,6.641,6.641,0,0,0,.979-.012,4.649,4.649,0,0,0,1.594-.424V20.656a.657.657,0,0,0-.128-.4,2.639,2.639,0,0,0-.289-.341,1.938,1.938,0,0,0-.3-.221.913.913,0,0,1-.18-.114.088.088,0,0,1,.062-.15h3.858a.087.087,0,0,1,.038.166q-.033.017-.174.1a1.989,1.989,0,0,0-.3.224,2.2,2.2,0,0,0-.275.335.688.688,0,0,0-.122.4v4.418a.092.092,0,0,1-.158.052,14.021,14.021,0,0,0-2.222.368,9.979,9.979,0,0,1-2.4.319m4.6-.74h0Zm-3.6-.6h0Z" transform="translate(-83.913 -7.545)" fill="#fff"/>
    <path id="패스_7" data-name="패스 7" d="M186.317,25.887h-9.338a.088.088,0,0,1-.014-.175c.02-.007.063-.027.13-.059a1.7,1.7,0,0,0,.291-.191,1.383,1.383,0,0,0,.289-.315.692.692,0,0,0,.121-.4V14.87a.653.653,0,0,0-.12-.392,1.507,1.507,0,0,0-.29-.309,1.794,1.794,0,0,0-.291-.191.68.68,0,0,1-.179-.1.088.088,0,0,1,.063-.149h9.03a.087.087,0,0,1,.088.087v1.959a.088.088,0,0,1-.148.064,1.079,1.079,0,0,1-.116-.168,2.275,2.275,0,0,0-.23-.289,1.684,1.684,0,0,0-.325-.27.676.676,0,0,0-.379-.12h-4.931v3.958h4.76a.674.674,0,0,0,.517-.207,2.853,2.853,0,0,0,.226-.25.087.087,0,0,1,.1-.045.089.089,0,0,1,.067.087v2.092a.088.088,0,0,1-.15.062c-.011-.012-.092-.1-.241-.253a.674.674,0,0,0-.517-.207h-4.76v4.393h5.221a.767.767,0,0,0,.416-.113,1.243,1.243,0,0,0,.319-.273,1.69,1.69,0,0,0,.222-.29c.05-.088.081-.143.093-.164a.087.087,0,0,1,.1-.044.088.088,0,0,1,.067.085V25.8a.088.088,0,0,1-.088.088" transform="translate(-102.242 -7.935)" fill="#fff"/>
    <path id="패스_8" data-name="패스 8" d="M214.787,25.887h-1.161a.088.088,0,0,1-.073-.039l-6.5-9.6v8.5a.739.739,0,0,0,.114.4,1.487,1.487,0,0,0,.265.316,1.271,1.271,0,0,0,.271.187c.066.033.108.053.128.06h0a.081.081,0,0,1,.078.087.1.1,0,0,1-.1.087h-2.97a.088.088,0,0,1-.039-.167,1.942,1.942,0,0,0,.408-.255,1.429,1.429,0,0,0,.265-.316.738.738,0,0,0,.114-.4V14.853a.658.658,0,0,0-.113-.377,1.526,1.526,0,0,0-.267-.309,1.3,1.3,0,0,0-.271-.188c-.132-.064-.186-.1-.186-.163a.087.087,0,0,1,.088-.087H208.5a.088.088,0,0,1,.063.149l-.078.077a.627.627,0,0,0-.1.125.475.475,0,0,0-.047.178.262.262,0,0,0,.06.176l5.031,7.577V14.853a.669.669,0,0,0-.113-.377,1.553,1.553,0,0,0-.267-.309,1.281,1.281,0,0,0-.271-.188.673.673,0,0,1-.178-.1.088.088,0,0,1,.063-.149h2.97a.087.087,0,0,1,.081.054.089.089,0,0,1-.02.1.784.784,0,0,1-.176.1,1.272,1.272,0,0,0-.271.188,1.545,1.545,0,0,0-.266.309.657.657,0,0,0-.114.378V25.8a.088.088,0,0,1-.088.088" transform="translate(-118.353 -7.935)" fill="#fff"/>
    <path id="패스_9" data-name="패스 9" d="M250.129,12.343s.9-1.315.56-5.7a8.874,8.874,0,0,0-2.751-5.578c-4.194-3.031-8.212,1.11-8.508,3.511s.107,5.619,4.926,7.389c0,0-5.457-2.286-4.655-6.89s8.5-4.527,9.812.692a18.546,18.546,0,0,1,.617,6.573" transform="translate(-138.346 0)" fill="#fff"/>
    <path id="패스_10" data-name="패스 10" d="M249.265,30.137a33.925,33.925,0,0,1-6.874,4.977c-2.805,1.537-2.966-.67-1.727-2.145,1.3-1.553,4.458-3.352,5.21-2.514,0,0,.254-1.115-2.213-1.205s-5.173,3.155-4.693,5.278,3.4,1.71,7.573-1.6a37.565,37.565,0,0,0,2.852-2.489l-.129-.3" transform="translate(-138.09 -16.905)" fill="#fff"/>
    <path id="패스_11" data-name="패스 11" d="M264.089,11.866c-.839-2.435-3.348-.219-6.017,2.394-1.581,1.548-5.32,4.313-5.32,4.313l-.614.164s2.182-1.812,4.771-4.01,3.014-5.807,3.265-6.68c.626-2.177-.3-4.9-1.781-4.169-.62.307-.228,1.355-.24,1.377,0,0-.745-1.253-.039-2.094,1.447-1.723,3.674.773,3.548,2.981a14.256,14.256,0,0,1-2.412,6.322,20.269,20.269,0,0,1,2.271-1.833c2.111-1.494,2.655-.182,2.655-.182a2.232,2.232,0,0,1-.086,1.418" transform="translate(-145.735 -1.495)" fill="#fff"/>
    <path id="패스_12" data-name="패스 12" d="M262.94,28.966a10.509,10.509,0,0,0-.958.955c-.551.614-3.3,4.815-1.115,5.735,1.693.714,4.439-.775,4.893-1.423,0,0-2.13,1.674-3.4.589-1.036-.887-.532-4.28.418-5.538Z" transform="translate(-150.3 -16.742)" fill="#fff"/>
  </g>
</svg>
